<?xml version="1.0" standalone="no"?>
<!DOCTYPE svg PUBLIC "-//W3C//DTD SVG 20010904//EN"
 "http://www.w3.org/TR/2001/REC-SVG-20010904/DTD/svg10.dtd">
<svg version="1.0" xmlns="http://www.w3.org/2000/svg"
 width="150.000000pt" height="150.000000pt" viewBox="0 0 150.000000 150.000000"
 preserveAspectRatio="xMidYMid meet">

<g transform="translate(0.000000,150.000000) scale(0.100000,-0.100000)"
fill="#000000" stroke="none">
<path d="M622 1490 c-79 -15 -219 -70 -283 -113 -73 -49 -196 -177 -236 -248
-18 -30 -47 -97 -64 -149 -31 -89 -33 -104 -33 -230 0 -126 2 -141 33 -230 46
-135 82 -193 185 -296 103 -103 161 -139 296 -185 89 -31 104 -33 230 -33 126
0 141 2 230 33 135 46 193 82 296 185 103 103 139 161 185 296 30 88 33 105
33 225 1 109 -3 142 -23 205 -45 146 -87 217 -191 321 -107 108 -164 144 -299
189 -75 25 -114 32 -200 35 -58 2 -130 0 -159 -5z m338 -99 c147 -51 294 -168
368 -293 62 -105 85 -189 90 -324 3 -101 0 -133 -18 -201 -57 -211 -225 -388
-440 -465 -56 -20 -84 -23 -210 -23 -132 0 -151 2 -218 27 -103 37 -175 83
-252 158 -74 72 -137 172 -171 270 -31 89 -38 277 -14 370 61 239 237 419 480
492 89 26 295 21 385 -11z"/>
<path d="M710 1035 l0 -244 -147 -3 -148 -3 0 -35 0 -35 188 -3 187 -2 0 285
0 285 -40 0 -40 0 0 -245z"/>
</g>
</svg>
